<svg xmlns="http://www.w3.org/2000/svg" width="63" height="32" viewBox="0 0 63 32">
  <g transform="translate(0 3.369)">
    <path d="M.187,22.115C15.394,8.538,21.9,3.156,25.13.617S28.8,4.183,28.8,4.183L4.375,24.813S2.04,26.569.769,24.757.187,22.115.187,22.115Z" transform="translate(0 0.001)" fill="#1d884d"/>
    <path d="M29.389,22.115C44.6,8.538,51.1,3.156,54.332.617S58,4.183,58,4.183L33.576,24.813s-2.335,1.756-3.606-.056-.58-2.643-.58-2.643Z" transform="translate(-12.087 0.001)" fill="#3172b5"/>
    <path d="M59.056,22.115C74.263,8.538,80.769,3.156,84,.617s3.666,3.566,3.666,3.566L63.242,24.813s-2.335,1.756-3.606-.056-.58-2.643-.58-2.643Z" transform="translate(-24.365 0.001)" fill="#e2b00a"/>
  </g>
</svg>
