<svg xmlns="http://www.w3.org/2000/svg" width="32" height="32" viewBox="0 0 32 32">
  <path d="M0,0H8V14H0Z" transform="translate(1 14)" fill="#989898"/>
  <g transform="translate(4 23)" fill="#fff" stroke="#fff" stroke-width="1">
    <rect width="2" height="2" stroke="none"/>
    <rect x="0.5" y="0.5" width="1" height="1" fill="none"/>
  </g>
  <g transform="translate(4 20)" fill="#fff" stroke="#fff" stroke-width="1">
    <rect width="2" height="2" stroke="none"/>
    <rect x="0.5" y="0.5" width="1" height="1" fill="none"/>
  </g>
  <g transform="translate(4 17)" fill="#fff" stroke="#fff" stroke-width="1">
    <rect width="2" height="2" stroke="none"/>
    <rect x="0.5" y="0.5" width="1" height="1" fill="none"/>
  </g>
  <g transform="translate(10 4)" fill="#989898">
    <path d="M 13.5 23.5 L 0.5 23.5 L 0.5 0.5 L 13.5 0.5 L 13.5 23.5 Z" stroke="none"/>
    <path d="M 1 1 L 1 23 L 13 23 L 13 1 L 1 1 M 0 0 L 14 0 L 14 24 L 0 24 L 0 0 Z" stroke="none" fill="#989898"/>
  </g>
  <g transform="translate(15 21)" fill="#989898">
    <path d="M 16 8 L 1 8 L 1 1 L 16 1 L 16 8 Z" stroke="none"/>
    <path d="M 2 2 L 2 7 L 15 7 L 15 2 L 2 2 M 0 0 L 17 0 L 17 9 L 0 9 L 0 0 Z" stroke="none" fill="#fff"/>
  </g>
  <rect width="2" height="4" transform="translate(20 25)" fill="#fff"/>
  <rect width="2" height="4" transform="translate(25 25)" fill="#fff"/>
  <rect width="2" height="2" transform="translate(13 7)" fill="#fff"/>
  <path d="M0,0H2V2H0Z" transform="translate(19 7)" fill="#fff"/>
  <path d="M0,0H2V2H0Z" transform="translate(13 12)" fill="#fff"/>
  <path d="M0,0H2V2H0Z" transform="translate(19 12)" fill="#fff"/>
</svg>
