<svg xmlns="http://www.w3.org/2000/svg" xmlns:xlink="http://www.w3.org/1999/xlink" width="88" height="88" viewBox="0 0 88 88">
  <defs>
    <filter id="Rechteck_726" x="0" y="0" width="88" height="88" filterUnits="userSpaceOnUse">
      <feOffset dy="3" input="SourceAlpha"/>
      <feGaussianBlur stdDeviation="3" result="blur"/>
      <feFlood flood-opacity="0.161"/>
      <feComposite operator="in" in2="blur"/>
      <feComposite in="SourceGraphic"/>
    </filter>
  </defs>
  <g transform="translate(8 5)">
    <g transform="matrix(1, 0, 0, 1, -8, -5)" filter="url(#Rechteck_726)">
      <rect width="70" height="70" rx="12" transform="translate(9 6)" fill="#ffe6e2"/>
    </g>
    <circle cx="10.5" cy="10.5" r="10.5" transform="translate(38.5 15.96)" fill="#fd907e"/>
    <path d="M16.956,11.081a2.848,2.848,0,0,1-.746,1.974,3.222,3.222,0,0,1-1.939,1.023v1.311a.231.231,0,0,1-.24.24H13.018a.243.243,0,0,1-.24-.24V14.077a4.733,4.733,0,0,1-.956-.232,4.608,4.608,0,0,1-1.316-.693,4.273,4.273,0,0,1-.349-.281q-.094-.09-.131-.135a.227.227,0,0,1-.015-.307l.773-1.011a.234.234,0,0,1,.173-.09.186.186,0,0,1,.18.067l.015.015a3.919,3.919,0,0,0,1.823.936,2.623,2.623,0,0,0,.555.06,1.82,1.82,0,0,0,1.069-.322,1.049,1.049,0,0,0,.461-.914.759.759,0,0,0-.112-.4,1.4,1.4,0,0,0-.251-.315,2.059,2.059,0,0,0-.439-.281q-.3-.154-.5-.24t-.6-.243L12.7,9.507q-.169-.067-.461-.2t-.469-.232q-.176-.1-.424-.266a2.641,2.641,0,0,1-.4-.318,4.671,4.671,0,0,1-.326-.367,1.832,1.832,0,0,1-.266-.434,3,3,0,0,1-.158-.5,2.6,2.6,0,0,1-.064-.584A2.56,2.56,0,0,1,10.865,4.8a3.433,3.433,0,0,1,1.913-1V2.443a.243.243,0,0,1,.24-.24h1.013a.231.231,0,0,1,.24.24V3.762a4.177,4.177,0,0,1,.829.172,4.809,4.809,0,0,1,.653.251,3.615,3.615,0,0,1,.476.281q.225.157.293.217t.113.1a.217.217,0,0,1,.038.285l-.608,1.094a.2.2,0,0,1-.173.12.239.239,0,0,1-.2-.052q-.022-.022-.109-.09t-.293-.2a3.872,3.872,0,0,0-.439-.24,3.353,3.353,0,0,0-.559-.195,2.505,2.505,0,0,0-.641-.086,1.951,1.951,0,0,0-1.163.322A1.006,1.006,0,0,0,12.1,6.938a.843.843,0,0,0,.221.311,3.3,3.3,0,0,0,.3.247,2.643,2.643,0,0,0,.42.232q.281.131.454.2t.525.206q.4.15.608.236t.57.262a4.533,4.533,0,0,1,.566.318,4.788,4.788,0,0,1,.465.375,1.94,1.94,0,0,1,.4.476,2.713,2.713,0,0,1,.236.573,2.468,2.468,0,0,1,.1.7Z" transform="translate(35.543 17.544)" fill="#ffe6e2"/>
    <path d="M33.425,23.07a1.726,1.726,0,0,0-2.519,0l-5.463,5.2a3.41,3.41,0,0,1-2.365.984H16.083a1.142,1.142,0,0,1,0-2.25h4.63a2.08,2.08,0,0,0,1.969-1.87,2.163,2.163,0,0,0-1.868-2.63h-9.46a6.313,6.313,0,0,0-4.381,1.849L4.222,27H.946A1.05,1.05,0,0,0,0,28.125v6.75A1.05,1.05,0,0,0,.946,36h21.1a3.431,3.431,0,0,0,2.365-.984l8.94-8.508A2.534,2.534,0,0,0,33.425,23.07Z" transform="translate(29.766 11.655) rotate(17)" fill="#fc573b"/>
    <path d="M1,0H4.083c.552,0,4.23.448,4.23,1L5,14a1,1,0,0,1-1,1H1a1,1,0,0,1-1-1V1A1,1,0,0,1,1,0Z" transform="translate(12.5 33.172)" fill="#fd907e"/>
    <rect width="72" height="72" fill="#fff" opacity="0"/>
  </g>
</svg>
