<svg xmlns="http://www.w3.org/2000/svg" xmlns:xlink="http://www.w3.org/1999/xlink" width="88" height="88" viewBox="0 0 88 88">
  <defs>
    <filter id="Rechteck_722" x="0" y="0" width="88" height="88" filterUnits="userSpaceOnUse">
      <feOffset dy="3" input="SourceAlpha"/>
      <feGaussianBlur stdDeviation="3" result="blur"/>
      <feFlood flood-opacity="0.161"/>
      <feComposite operator="in" in2="blur"/>
      <feComposite in="SourceGraphic"/>
    </filter>
  </defs>
  <g transform="translate(8 5)">
    <g transform="matrix(1, 0, 0, 1, -8, -5)" filter="url(#Rechteck_722)">
      <rect width="70" height="70" rx="12" transform="translate(9 6)" fill="#e3f8fa"/>
    </g>
    <path d="M21.614,1.525a3,3,0,0,1,3.772,0L40.4,13.667A3,3,0,0,1,38.518,19H8.482A3,3,0,0,1,6.6,13.667Z" transform="translate(13 17)" fill="#26c6da"/>
    <rect width="27" height="24" rx="5" transform="translate(23 31)" fill="#26c6da"/>
    <rect width="7" height="12" rx="1" transform="translate(43 19)" fill="#26c6da"/>
    <path d="M7.132,1.011c.348-.248.1-.845.449-.6l3.88,2.771A1,1,0,0,1,10.88,5l-7.819.512c-.973,0-.782-1.277.01-1.842Z" transform="matrix(0.799, -0.602, 0.602, 0.799, 29.125, 42.104)" fill="#e3f8fa"/>
    <path d="M6.938,1.058c.348-.248.3-.892.643-.643l3.88,2.771A1,1,0,0,1,10.88,5l-8.32.437c-.973,0-1.3-.944-.5-1.509Z" transform="translate(43.315 33.706) rotate(135)" fill="#e3f8fa"/>
    <rect width="72" height="72" fill="#fff" opacity="0"/>
  </g>
</svg>
