<svg xmlns="http://www.w3.org/2000/svg" width="32" height="32" viewBox="0 0 32 32">
  <path d="M21.5,17.5a4,4,0,1,1-4-4A4,4,0,0,1,21.5,17.5Z" transform="translate(-1.428 -1.646)" fill="none" stroke="currentColor" stroke-linecap="round" stroke-linejoin="round" stroke-width="3"/>
  <path d="M25,19.133a2.057,2.057,0,0,0,.421,2.292l.077.076a2.494,2.494,0,0,1,0,3.564,2.58,2.58,0,0,1-3.614,0l-.077-.076a2.129,2.129,0,0,0-2.324-.416,2.078,2.078,0,0,0-1.277,1.9v.214a2.555,2.555,0,0,1-5.109,0v-.113a2.08,2.08,0,0,0-1.379-1.9,2.129,2.129,0,0,0-2.324.416l-.077.076a2.58,2.58,0,0,1-3.614,0,2.494,2.494,0,0,1,0-3.564l.077-.076A2.057,2.057,0,0,0,6.2,19.234a2.108,2.108,0,0,0-1.929-1.259H4.054a2.519,2.519,0,1,1,0-5.038h.115A2.105,2.105,0,0,0,6.1,11.576a2.057,2.057,0,0,0-.421-2.292L5.6,9.208a2.494,2.494,0,0,1,0-3.564,2.58,2.58,0,0,1,3.614,0l.077.076a2.129,2.129,0,0,0,2.324.416h.1a2.078,2.078,0,0,0,1.277-1.9V4.019a2.555,2.555,0,0,1,5.109,0v.113a2.078,2.078,0,0,0,1.277,1.9A2.129,2.129,0,0,0,21.7,5.619l.077-.076a2.58,2.58,0,0,1,3.614,0,2.494,2.494,0,0,1,0,3.564l-.077.076a2.057,2.057,0,0,0-.421,2.292v.1a2.108,2.108,0,0,0,1.929,1.259h.217a2.519,2.519,0,1,1,0,5.038h-.115A2.108,2.108,0,0,0,25,19.133Z" transform="translate(0.523 0.5)" fill="none" stroke="currentColor" stroke-linecap="round" stroke-linejoin="round" stroke-width="3"/>
</svg>
