<svg xmlns="http://www.w3.org/2000/svg" width="70" height="70" viewBox="0 0 70 70">
  <g transform="translate(59 18) rotate(90)" stroke-linejoin="round" stroke-width="1">
    <rect width="30" height="48" rx="3" fill="#fff" stroke="none"/>
    <rect x="0.5" y="0.5" width="29" height="47" rx="2.5" fill="none" stroke="#000"/>
  </g>

  <g transform="translate(59 22) rotate(90)" stroke-linejoin="round" stroke-width="1">
    <rect width="10" height="37" rx="1" stroke="none"/>
    <rect x="0.5" y="0.5" width="9" height="36" rx="0.5" fill="none" stroke="#000"/>
  </g>

  <rect width="8" height="19" rx="1" transform="translate(45 23) rotate(90)" fill="#fff"/>

  <g transform="translate(16 34)" stroke-width="1">
    <circle cx="6" cy="6" r="6" fill="#fff" stroke="none"/>
    <circle cx="6" cy="6" r="5.5" fill="none" stroke="#000"/>
  </g>

  <path d="M13.618,4.895a9.946,9.946,0,0,0-13.508,0A.343.343,0,0,0,.1,5.39l.734.731a.347.347,0,0,0,.48.008,8.207,8.207,0,0,1,11.094,0,.348.348,0,0,0,.48-.008l.734-.731a.343.343,0,0,0-.008-.495ZM6.863,9.138a1.378,1.378,0,1,0,1.373,1.378A1.375,1.375,0,0,0,6.863,9.138Zm4.347-1.8a6.567,6.567,0,0,0-8.694,0,.341.341,0,0,0-.012.5l.739.732a.349.349,0,0,0,.473.017,4.818,4.818,0,0,1,6.295,0,.349.349,0,0,0,.473-.017l.739-.732A.341.341,0,0,0,11.21,7.339Z" transform="translate(38.137 32.928)"/>
</svg>
