<svg xmlns="http://www.w3.org/2000/svg" width="70" height="70" viewBox="0 0 70 70">
  <g transform="translate(18 14)" stroke-linejoin="round" stroke-width="1">
    <rect width="34" height="42" rx="3" fill="#fff" stroke="none"/>
    <rect x="0.5" y="0.5" width="33" height="41" rx="2.5" fill="none" stroke="#000"/>
  </g>

  <g transform="translate(22 18)" stroke-linejoin="round" stroke-width="1">
    <rect width="26" height="8" rx="1" fill="#fff" stroke="none"/>
    <rect x="0.5" y="0.5" width="25" height="7" rx="0.5" fill="none" stroke="#000"/>
  </g>

  <line y2="7" transform="translate(28.299 18.5)" fill="none" stroke="#000" stroke-width="1"/>
  <line y2="7" transform="translate(35 18.5)" fill="none" stroke="#000" stroke-width="1"/>
  <line y2="7" transform="translate(41.701 18.5)" fill="none" stroke="#000" stroke-width="1"/>
  <path d="M14.8,9.9a2.658,2.658,0,0,1-.109.814,1.449,1.449,0,0,1-.3.543,1.135,1.135,0,0,1-.472.3,2.025,2.025,0,0,1-1.231,0,1.147,1.147,0,0,1-.476-.3,1.459,1.459,0,0,1-.309-.543A2.658,2.658,0,0,1,11.79,9.9V9.244a2.658,2.658,0,0,1,.109-.814,1.391,1.391,0,0,1,.305-.54,1.134,1.134,0,0,1,.476-.3,1.94,1.94,0,0,1,.614-.093,1.963,1.963,0,0,1,.617.093,1.134,1.134,0,0,1,.476.3,1.391,1.391,0,0,1,.305.54,2.644,2.644,0,0,1,.109.814V9.9Zm-.766-.754a2.578,2.578,0,0,0-.047-.517.884.884,0,0,0-.145-.339.54.54,0,0,0-.232-.185.747.747,0,0,0-.312-.061.8.8,0,0,0-.312.057.54.54,0,0,0-.232.185.944.944,0,0,0-.145.339,2.336,2.336,0,0,0-.047.517v.853a2.314,2.314,0,0,0,.051.517,1,1,0,0,0,.145.348.564.564,0,0,0,.232.195.853.853,0,0,0,.632,0,.554.554,0,0,0,.229-.195,1,1,0,0,0,.142-.348,2.375,2.375,0,0,0,.047-.517v-.85Z" transform="translate(11.854 12.424)"/>
  <path d="M14.8,9.9a2.658,2.658,0,0,1-.109.814,1.449,1.449,0,0,1-.3.543,1.135,1.135,0,0,1-.472.3,2.025,2.025,0,0,1-1.231,0,1.147,1.147,0,0,1-.476-.3,1.459,1.459,0,0,1-.309-.543A2.658,2.658,0,0,1,11.79,9.9V9.244a2.658,2.658,0,0,1,.109-.814,1.391,1.391,0,0,1,.305-.54,1.134,1.134,0,0,1,.476-.3,1.94,1.94,0,0,1,.614-.093,1.963,1.963,0,0,1,.617.093,1.134,1.134,0,0,1,.476.3,1.391,1.391,0,0,1,.305.54,2.644,2.644,0,0,1,.109.814V9.9Zm-.766-.754a2.578,2.578,0,0,0-.047-.517.884.884,0,0,0-.145-.339.54.54,0,0,0-.232-.185.747.747,0,0,0-.312-.061.8.8,0,0,0-.312.057.54.54,0,0,0-.232.185.944.944,0,0,0-.145.339,2.336,2.336,0,0,0-.047.517v.853a2.314,2.314,0,0,0,.051.517,1,1,0,0,0,.145.348.564.564,0,0,0,.232.195.853.853,0,0,0,.632,0,.554.554,0,0,0,.229-.195,1,1,0,0,0,.142-.348,2.375,2.375,0,0,0,.047-.517v-.85Z" transform="translate(18.154 12.424)"/>
  <path d="M14.8,9.9a2.658,2.658,0,0,1-.109.814,1.449,1.449,0,0,1-.3.543,1.135,1.135,0,0,1-.472.3,2.025,2.025,0,0,1-1.231,0,1.147,1.147,0,0,1-.476-.3,1.459,1.459,0,0,1-.309-.543A2.658,2.658,0,0,1,11.79,9.9V9.244a2.658,2.658,0,0,1,.109-.814,1.391,1.391,0,0,1,.305-.54,1.134,1.134,0,0,1,.476-.3,1.94,1.94,0,0,1,.614-.093,1.963,1.963,0,0,1,.617.093,1.134,1.134,0,0,1,.476.3,1.391,1.391,0,0,1,.305.54,2.644,2.644,0,0,1,.109.814V9.9Zm-.766-.754a2.578,2.578,0,0,0-.047-.517.884.884,0,0,0-.145-.339.54.54,0,0,0-.232-.185.747.747,0,0,0-.312-.061.8.8,0,0,0-.312.057.54.54,0,0,0-.232.185.944.944,0,0,0-.145.339,2.336,2.336,0,0,0-.047.517v.853a2.314,2.314,0,0,0,.051.517,1,1,0,0,0,.145.348.564.564,0,0,0,.232.195.853.853,0,0,0,.632,0,.554.554,0,0,0,.229-.195,1,1,0,0,0,.142-.348,2.375,2.375,0,0,0,.047-.517v-.85Z" transform="translate(24.855 12.424)"/>
  <path d="M14.8,9.9a2.658,2.658,0,0,1-.109.814,1.449,1.449,0,0,1-.3.543,1.135,1.135,0,0,1-.472.3,2.025,2.025,0,0,1-1.231,0,1.147,1.147,0,0,1-.476-.3,1.459,1.459,0,0,1-.309-.543A2.658,2.658,0,0,1,11.79,9.9V9.244a2.658,2.658,0,0,1,.109-.814,1.391,1.391,0,0,1,.305-.54,1.134,1.134,0,0,1,.476-.3,1.94,1.94,0,0,1,.614-.093,1.963,1.963,0,0,1,.617.093,1.134,1.134,0,0,1,.476.3,1.391,1.391,0,0,1,.305.54,2.644,2.644,0,0,1,.109.814V9.9Zm-.766-.754a2.578,2.578,0,0,0-.047-.517.884.884,0,0,0-.145-.339.54.54,0,0,0-.232-.185.747.747,0,0,0-.312-.061.8.8,0,0,0-.312.057.54.54,0,0,0-.232.185.944.944,0,0,0-.145.339,2.336,2.336,0,0,0-.047.517v.853a2.314,2.314,0,0,0,.051.517,1,1,0,0,0,.145.348.564.564,0,0,0,.232.195.853.853,0,0,0,.632,0,.554.554,0,0,0,.229-.195,1,1,0,0,0,.142-.348,2.375,2.375,0,0,0,.047-.517v-.85Z" transform="translate(31.556 12.424)"/>
  <path d="M18.326,5.634a13.9,13.9,0,0,0-18.179,0,.424.424,0,0,0-.01.633l.988.935a.485.485,0,0,0,.647.01,11.471,11.471,0,0,1,14.93,0,.485.485,0,0,0,.647-.01l.988-.935a.424.424,0,0,0-.01-.633Zm-9.09,5.428a1.764,1.764,0,1,0,1.847,1.762A1.806,1.806,0,0,0,9.236,11.062Zm5.85-2.3a9.184,9.184,0,0,0-11.7,0A.422.422,0,0,0,3.37,9.4l.994.936A.488.488,0,0,0,5,10.356a6.74,6.74,0,0,1,8.471,0,.488.488,0,0,0,.636-.022L15.1,9.4A.422.422,0,0,0,15.086,8.76Z" transform="translate(25.763 32.75)"/>
</svg>
